<?xml version="1.0" encoding="utf-8"?>
<?xml-stylesheet type="text/xsl" href="rss1.xsl"?>
<rss version="2.0" xmlns:atom="http://www.w3.org/2005/Atom" xmlns:content="http://purl.org/rss/1.0/modules/content/" xmlns:dc="http://purl.org/dc/elements/1.1/" xmlns:media="http://search.yahoo.com/mrss/">
<channel>
 <title>Getty</title>
 <link>http://www.gettyimg.com/</link>
 <atom:link href="http://www.gettyimg.com/" rel="self" type="application/rss+xml" />

 
                <item>
                <title><![CDATA[【Singles (lossy)】Dolby Atmos - Mike Posner, Gigamesh - Cooler Than Me (Single Mix) (Dolby Atmos)]]></title>
                <link><![CDATA[https://sharemania.us/threads/mike-posner-gigamesh-cooler-than-me-single-mix-dolby-atmos.242676/]]></link>
                <description><![CDATA[<article>
<blockquote class="messageText SelectQuoteContainer ugc baseHtml">
<img src="https://i.scdn.co/image/ab67616d0000b273d6165c0d6eba7e5bf3fca16d" class="bbCodeImage LbImage" alt="[​IMG]" data-url="https://i.scdn.co/image/ab67616d0000b273d6165c0d6eba7e5bf3fca16d" style=""><br>
Note: Reuploaded with true atmos rip<br>
<br>
Source: Apple Music<br>
Format: .m4a E-AC3 JOC<br>
<div class="bbCodeBlock bbCodeVfcHH HiddenContent">
<div class="attribution type">Hidden Content:</div>
<blockquote>You must reply before you can see the hidden data contained here.</blockquote>
</div>
<div class="messageTextEndMarker">&nbsp;</div>
</blockquote>
</article>]]></description>
                <author><![CDATA[BbbDdd345]]></author>
                </item>

                
                <item>
                <title><![CDATA[【Apple Music】WEB-RiP - Kygo - For Life (feat. Zak Abel &amp; Nile Rodgers) [Apple HD Music Video]]]></title>
                <link><![CDATA[https://sharemania.us/threads/kygo-for-life-feat-zak-abel-nile-rodgers-apple-hd-music-video.242674/]]></link>
                <description><![CDATA[<article>
<blockquote class="messageText SelectQuoteContainer ugc baseHtml">
<span style="font-size: 22px"><b>Kygo - For Life (feat. Zak Abel &amp; Nile Rodgers) [Apple HD Music Video]</b></span><br>
<br>
<img src="https://imgur.com/6cxmg4s.jpg" class="bbCodeImage LbImage" alt="[​IMG]" data-url="https://imgur.com/6cxmg4s.jpg" style=""><br>
<br>
<div class="bbCodeBlock bbCodeCode">
<div class="type">Code:</div>
<pre>General
Format                         : MPEG-4
Codec ID                       : M4V  (isom/iso4/M4V /mp42)
File size                      : 220 MiB
Duration                       : 2 min 58 s
Overall bit rate mode          : Variable
Overall bit rate               : 10.3 Mb/s
Movie name                     : For Life (feat. Zak Abel &amp; Nile Rodgers)
Performer                      : Kygo
Genre                          : Dance
ContentType                    : Music Video
Recorded date                  : UTC 2024-04-19 07:00:00
Encoded date                   : UTC 2024-04-19 05:03:47
Tagged date                    : UTC 2024-04-19 05:03:47
Copyright                      : ℗ (C) 2024 Kygo, under exclusive license to RCA Records, a division of Sony Music Entertainment
Cover                          : Yes
Rating                         : None
GenreID                        : 1617
AppleStoreCountry              : United Kingdom
AlbumTitleID                   : 635806094
AppleStoreCatalogID            : 1741642302

Video
ID                             : 2
Format                         : AVC
Format/Info                    : Advanced Video Codec
Format profile                 : High@L4
Format settings                : CABAC / 5 Ref Frames
Format settings, CABAC         : Yes
Format settings, Reference fra : 5 frames
Codec ID                       : avc1
Codec ID/Info                  : Advanced Video Coding
Duration                       : 2 min 58 s
Bit rate                       : 10.1 Mb/s
Maximum bit rate               : 21.1 Mb/s
Width                          : 1 920 pixels
Height                         : 804 pixels
Display aspect ratio           : 2.40:1
Frame rate mode                : Constant
Frame rate                     : 25.000 FPS
Color space                    : YUV
Chroma subsampling             : 4:2:0
Bit depth                      : 8 bits
Scan type                      : Progressive
Bits/(Pixel*Frame)             : 0.261
Stream size                    : 214 MiB (97%)
Title                          : Core Media Video
Encoded date                   : UTC 2024-04-17 03:25:42
Tagged date                    : UTC 2024-04-19 05:03:52
Color range                    : Limited
Color primaries                : BT.709
Transfer characteristics       : BT.709
Matrix coefficients            : BT.709
Codec configuration box        : avcC

Audio
ID                             : 1
Format                         : AAC LC
Format/Info                    : Advanced Audio Codec Low Complexity
Codec ID                       : mp4a-40-2
Duration                       : 2 min 58 s
Duration_LastFrame             : -7 ms
Bit rate mode                  : Variable
Bit rate                       : 259 kb/s
Maximum bit rate               : 309 kb/s
Channel(s)                     : 2 channels
Channel layout                 : L R
Sampling rate                  : 48.0 kHz
Frame rate                     : 46.875 FPS (1024 SPF)
Compression mode               : Lossy
Stream size                    : 5.52 MiB (3%)
Title                          : Core Media Audio
Encoded date                   : UTC 2024-04-17 03:19:01
Tagged date                    : UTC 2024-04-19 05:03:52
</pre>
</div>
<div class="bbCodeBlock bbCodeVfcHH HiddenContent">
<div class="attribution type">Hidden Content:</div>
<blockquote>You must reply before you can see the hidden data contained here.</blockquote>
</div>
<div class="messageTextEndMarker">&nbsp;</div>
</blockquote>
</article>]]></description>
                <author><![CDATA[Mu$iC @$YLUM]]></author>
                </item>

                
                <item>
                <title><![CDATA[【Singles (lossy)】Dolby Atmos - The Bangles - Walk Like an Egyptian (Dolby Atmos)]]></title>
                <link><![CDATA[https://sharemania.us/threads/the-bangles-walk-like-an-egyptian-dolby-atmos.242675/]]></link>
                <description><![CDATA[<article>
<blockquote class="messageText SelectQuoteContainer ugc baseHtml">
<img src="https://is1-ssl.mzstatic.com/image/thumb/Music/c4/d4/fe/mzi.lxjhpnml.jpg/600x600bf-60.jpg" class="bbCodeImage LbImage" alt="[​IMG]" data-url="https://is1-ssl.mzstatic.com/image/thumb/Music/c4/d4/fe/mzi.lxjhpnml.jpg/600x600bf-60.jpg" style=""> <br>
Source: Apple Music<br>
Format: .m4a E-AC3 JOC<br>
<div class="bbCodeBlock bbCodeVfcHH HiddenContent">
<div class="attribution type">Hidden Content:</div>
<blockquote>You must reply before you can see the hidden data contained here.</blockquote>
</div>
<div class="messageTextEndMarker">&nbsp;</div>
</blockquote>
</article>]]></description>
                <author><![CDATA[BbbDdd345]]></author>
                </item>

                </channel></rss>